<?xml version="1.0" encoding="UTF-8"?>
<svg id="Layer_2" data-name="Layer 2" xmlns="http://www.w3.org/2000/svg" xmlns:xlink="http://www.w3.org/1999/xlink" viewBox="0 0 1882.38 682.98">
  <defs>
    <style>
      .cls-1 {
        fill: url(#linear-gradient-2);
      }

      .cls-2 {
        fill: #013473;
      }

      .cls-3 {
        fill: #c00011;
      }

      .cls-4 {
        fill: url(#linear-gradient);
      }
    </style>
    <linearGradient id="linear-gradient" x1="1674.71" y1="147.74" x2="1560.27" y2="257.33" gradientUnits="userSpaceOnUse">
      <stop offset="0" stop-color="#c00011" stop-opacity="0"/>
      <stop offset="1" stop-color="#75030e"/>
    </linearGradient>
    <linearGradient id="linear-gradient-2" x1="1294.42" y1="499.65" x2="1420.97" y2="407.28" xlink:href="#linear-gradient"/>
  </defs>
  <g id="Layer_2-2" data-name="Layer 2">
    <g>
      <polygon class="cls-2" points="224.02 40.61 0 445.02 112.01 445.02 261.12 145.35 291.67 445.02 403.68 445.02 346.95 40.61 224.02 40.61"/>
      <rect class="cls-2" x="104.5" y="283.55" width="234.21" height="80.01"/>
      <polygon class="cls-2" points="533.77 41.1 638.51 41.1 551.44 445.02 446.7 445.02 533.77 41.1"/>
      <polygon class="cls-2" points="897.44 41.1 1002.18 41.1 915.11 445.02 810.37 445.02 897.44 41.1"/>
      <path class="cls-2" d="M638.51,41.1h39.5s115.98,7.52,132.36,90.07-25.8,182.2-160.36,181.11l-134.56-1.09,18.18-82.55h109.83s56.01,5.46,66.19-32.73-4.67-67.28-45.07-67.28-83.31,1.45-83.31,1.45l57.23-88.98Z"/>
      <polygon class="cls-2" points="1182.91 40.61 1163.03 130.44 937.07 130.44 960.88 41.1 1182.91 40.61"/>
      <polygon class="cls-2" points="1125.11 355.19 1105.22 445.02 879.26 445.02 903.07 355.67 1125.11 355.19"/>
      <polygon class="cls-2" points="1141.11 197.9 1121.23 287.73 895.26 287.73 919.07 198.38 1141.11 197.9"/>
      <g>
        <path class="cls-2" d="M3.58,550.13v-70.04h16.31v70.04H3.58ZM18.58,521.42v-13.71h34.22v13.71H18.58ZM51.6,550.13v-70.04h16.21v70.04h-16.21Z"/>
        <path class="cls-2" d="M149.46,550.13v-28.62l3.7,9.81-30.92-51.23h17.31l23.61,39.22h-9.91l23.71-39.22h15.81l-30.72,51.23,3.7-9.81v28.62h-16.31Z"/>
        <path class="cls-2" d="M279.23,551.33c-5.54,0-10.64-.88-15.31-2.65-4.67-1.77-8.7-4.28-12.11-7.55s-6.05-7.1-7.95-11.51-2.85-9.24-2.85-14.51.95-10.11,2.85-14.51c1.9-4.4,4.59-8.24,8.05-11.51,3.47-3.27,7.54-5.79,12.21-7.55,4.67-1.77,9.81-2.65,15.41-2.65,6.2,0,11.79,1.03,16.76,3.1,4.97,2.07,9.16,5.07,12.56,9.01l-10.31,9.61c-2.6-2.73-5.4-4.75-8.4-6.05-3-1.3-6.3-1.95-9.91-1.95-3.34,0-6.4.55-9.21,1.65-2.8,1.1-5.22,2.65-7.25,4.65-2.03,2-3.6,4.37-4.7,7.1-1.1,2.74-1.65,5.77-1.65,9.11s.55,6.19,1.65,8.96c1.1,2.77,2.67,5.15,4.7,7.15,2.03,2,4.44,3.57,7.2,4.7,2.77,1.14,5.82,1.7,9.16,1.7s6.32-.53,9.35-1.6c3.04-1.07,5.99-2.83,8.86-5.3l9.21,11.71c-3.87,2.94-8.3,5.15-13.31,6.65-5,1.5-10.01,2.25-15.01,2.25ZM307.55,542.43l-14.81-2.2v-26.21h14.81v28.41Z"/>
        <path class="cls-2" d="M371.28,550.13v-70.04h16.31v70.04h-16.31Z"/>
        <path class="cls-2" d="M452.82,550.13v-70.04h52.93v13.01h-36.82v44.02h38.12v13.01h-54.23ZM467.73,520.92v-12.71h33.72v12.71h-33.72Z"/>
        <path class="cls-2" d="M568.69,550.13v-70.04h13.41l41.32,50.43h-6.5v-50.43h16.01v70.04h-13.41l-41.32-50.43h6.5v50.43h-16.01Z"/>
        <path class="cls-2" d="M698.26,550.13v-70.04h52.93v13.01h-36.82v44.02h38.12v13.01h-54.23ZM713.17,520.92v-12.71h33.72v12.71h-33.72Z"/>
        <path class="cls-2" d="M922.28,551.33c-9.94,0-17.71-2.77-23.31-8.3-5.6-5.54-8.4-13.47-8.4-23.81v-39.12h16.31v38.72c0,6.6,1.37,11.39,4.1,14.36,2.73,2.97,6.54,4.45,11.41,4.45s8.77-1.48,11.51-4.45c2.73-2.97,4.1-7.75,4.1-14.36v-38.72h15.91v39.12c0,10.34-2.8,18.28-8.4,23.81-5.6,5.54-13.34,8.3-23.21,8.3Z"/>
        <path class="cls-2" d="M1018.73,550.13v-70.04h16.11v70.04h-16.11ZM1033.14,534.13l-.8-18.71,33.52-35.32h18.01l-30.12,32.52-9.2,9.61-11.41,11.91ZM1066.66,550.13l-24.91-30.42,10.61-11.61,33.32,42.02h-19.01Z"/>
      </g>
      <g>
        <path class="cls-3" d="M1882.38,0l-77.44,3.38c-67.8,2.96-131.67,32.64-177.65,82.54l-550.09,597.06h51.12c81.44,0,159.14-34.17,214.18-94.2L1882.38,0Z"/>
        <polygon class="cls-4" points="1697.44 201.69 1606.6 108.39 1386.22 347.67 1476.46 442.17 1697.44 201.69"/>
        <polygon class="cls-1" points="1372.04 556.57 1283.15 459.46 1466.56 260.42 1555.17 356.86 1372.04 556.57"/>
        <polygon class="cls-3" points="1209.33 41.58 1401.84 41.58 1763.58 550.62 1551.68 550.62 1209.33 41.58"/>
      </g>
    </g>
  </g>
</svg>